<?xml version="1.0" encoding="UTF-8" standalone="no" ?>
<!DOCTYPE svg PUBLIC "-//W3C//DTD SVG 1.1//EN" "http://www.w3.org/Graphics/SVG/1.1/DTD/svg11.dtd">
<svg xmlns="http://www.w3.org/2000/svg" xmlns:xlink="http://www.w3.org/1999/xlink" version="1.1" width="1080" height="1080" viewBox="0 0 1080 1080" xml:space="preserve">
<desc>Created with Fabric.js 5.2.4</desc>
<defs>
</defs>
<rect x="0" y="0" width="100%" height="100%" fill="transparent"></rect>
<g transform="matrix(1 0 0 1 540 540)" id="1c001bfb-0247-45d3-8d55-6db7358dceb6"  >
<rect style="stroke: none; stroke-width: 1; stroke-dasharray: none; stroke-linecap: butt; stroke-dashoffset: 0; stroke-linejoin: miter; stroke-miterlimit: 4; fill: rgb(255,255,255); fill-rule: nonzero; opacity: 1; visibility: hidden;" vector-effect="non-scaling-stroke"  x="-540" y="-540" rx="0" ry="0" width="1080" height="1080" />
</g>
<g transform="matrix(1 0 0 1 540 540)" id="d75e8138-a825-463d-8ef7-d2b8e74452e0"  >
</g>
<g transform="matrix(1 0 0 1 540 540)"  >
<path style="stroke: none; stroke-width: 1; stroke-dasharray: none; stroke-linecap: butt; stroke-dashoffset: 0; stroke-linejoin: miter; stroke-miterlimit: 4; fill: rgb(255,255,255); fill-opacity: 0.01; fill-rule: nonzero; opacity: 1;" vector-effect="non-scaling-stroke"  transform=" translate(-302, -199)" d="M 0 0 L 604 0 L 604 331 C 604 368.003 574.003 398 537 398 L 67 398 C 29.9969 398 0 368.003 0 331 L 0 0 Z" stroke-linecap="round" />
</g>
<g transform="matrix(1 0 0 1 540 540)"  >
<path style="stroke: rgb(255,255,255); stroke-opacity: 0.1; stroke-width: 1; stroke-dasharray: none; stroke-linecap: butt; stroke-dashoffset: 0; stroke-linejoin: miter; stroke-miterlimit: 4; fill: none; fill-rule: nonzero; opacity: 1;" vector-effect="non-scaling-stroke"  transform=" translate(-302, -199)" d="M 0.5 0.5 L 603.5 0.5 L 603.5 331 C 603.5 367.727 573.727 397.5 537 397.5 L 67 397.5 C 30.2731 397.5 0.5 367.727 0.5 331 L 0.5 0.5 Z" stroke-linecap="round" />
</g>
<g transform="matrix(1 0 0 1 321 421.83)"  >
<circle style="stroke: none; stroke-width: 1; stroke-dasharray: none; stroke-linecap: butt; stroke-dashoffset: 0; stroke-linejoin: miter; stroke-miterlimit: 4; fill: rgb(59,130,246); fill-rule: nonzero; opacity: 1;" vector-effect="non-scaling-stroke"  cx="0" cy="0" r="39.8318" />
</g>
<g transform="matrix(1 0 0 1 321 422.17)"  >
<path style="stroke: none; stroke-width: 1; stroke-dasharray: none; stroke-linecap: butt; stroke-dashoffset: 0; stroke-linejoin: miter; stroke-miterlimit: 4; fill: rgb(255,255,255); fill-rule: nonzero; opacity: 1;" vector-effect="non-scaling-stroke"  transform=" translate(-83, -81.17)" d="M 82.9994 87.449 C 82.7595 87.449 82.5347 87.4126 82.3248 87.34 C 82.1149 87.2674 81.92 87.1426 81.74 86.9657 L 75.2632 80.6395 C 74.9034 80.288 74.7307 79.878 74.7451 79.4094 C 74.7594 78.9408 74.9322 78.5308 75.2632 78.1793 C 75.623 77.8278 76.0506 77.6451 76.546 77.631 C 77.0413 77.617 77.4683 77.7851 77.827 78.1354 L 81.2003 81.4303 L 81.2003 68.8657 C 81.2003 68.3678 81.373 67.9507 81.7185 67.6145 C 82.0639 67.2783 82.4909 67.1096 82.9994 67.1084 C 83.508 67.1072 83.9356 67.2759 84.2822 67.6145 C 84.6288 67.9531 84.801 68.3701 84.7986 68.8657 L 84.7986 81.4303 L 88.1719 78.1354 C 88.5317 77.7839 88.9593 77.6152 89.4547 77.6293 C 89.95 77.6433 90.377 77.8267 90.7357 78.1793 C 91.0655 78.5308 91.2382 78.9408 91.2538 79.4094 C 91.2694 79.878 91.0967 80.288 90.7357 80.6395 L 84.2588 86.9657 C 84.0789 87.1414 83.884 87.2662 83.6741 87.34 C 83.4642 87.4138 83.2393 87.4501 82.9994 87.449 Z M 72.2047 95.2249 C 71.2152 95.2249 70.3684 94.8811 69.6643 94.1934 C 68.9603 93.5057 68.6076 92.6781 68.6064 91.7104 L 68.6064 88.1958 C 68.6064 87.6979 68.7792 87.2809 69.1246 86.9446 C 69.47 86.6084 69.897 86.4397 70.4056 86.4385 C 70.9141 86.4374 71.3417 86.6061 71.6883 86.9446 C 72.035 87.2832 72.2071 87.7003 72.2047 88.1958 L 72.2047 91.7104 L 93.7942 91.7104 L 93.7942 88.1958 C 93.7942 87.6979 93.9669 87.2809 94.3123 86.9446 C 94.6578 86.6084 95.0847 86.4397 95.5933 86.4385 C 96.1018 86.4374 96.5294 86.6061 96.8761 86.9446 C 97.2227 87.2832 97.3948 87.7003 97.3924 88.1958 L 97.3924 91.7104 C 97.3924 92.6769 97.0404 93.5046 96.3363 94.1934 C 95.6323 94.8823 94.7849 95.2261 93.7942 95.2249 L 72.2047 95.2249 Z" stroke-linecap="round" />
</g>
<g transform="matrix(1 0 0 1 590.46 451)"  >
<rect style="stroke: none; stroke-width: 1; stroke-dasharray: none; stroke-linecap: butt; stroke-dashoffset: 0; stroke-linejoin: miter; stroke-miterlimit: 4; fill: rgb(44,44,44); fill-rule: nonzero; opacity: 1;" vector-effect="non-scaling-stroke"  x="-202.5" y="-10" rx="10" ry="10" width="405" height="20" />
</g>
<g transform="matrix(1 0 0 1 320.83 535.83)"  >
<circle style="stroke: none; stroke-width: 1; stroke-dasharray: none; stroke-linecap: butt; stroke-dashoffset: 0; stroke-linejoin: miter; stroke-miterlimit: 4; fill: rgb(59,130,246); fill-rule: nonzero; opacity: 1;" vector-effect="non-scaling-stroke"  cx="0" cy="0" r="39.8318" />
</g>
<g transform="matrix(1 0 0 1 320.83 536.17)"  >
<path style="stroke: none; stroke-width: 1; stroke-dasharray: none; stroke-linecap: butt; stroke-dashoffset: 0; stroke-linejoin: miter; stroke-miterlimit: 4; fill: rgb(255,255,255); fill-rule: nonzero; opacity: 1;" vector-effect="non-scaling-stroke"  transform=" translate(-82.83, -195.17)" d="M 82.8315 201.449 C 82.5916 201.449 82.3667 201.413 82.1568 201.34 C 81.9469 201.267 81.752 201.143 81.5721 200.966 L 75.0952 194.639 C 74.7354 194.288 74.5627 193.878 74.5771 193.409 C 74.5915 192.941 74.7642 192.531 75.0952 192.179 C 75.4551 191.828 75.8826 191.645 76.378 191.631 C 76.8734 191.617 77.3004 191.785 77.659 192.135 L 81.0323 195.43 L 81.0323 182.866 C 81.0323 182.368 81.2051 181.951 81.5505 181.615 C 81.8959 181.278 82.3229 181.11 82.8315 181.108 C 83.34 181.107 83.7676 181.276 84.1142 181.615 C 84.4609 181.953 84.633 182.37 84.6306 182.866 L 84.6306 195.43 L 88.0039 192.135 C 88.3638 191.784 88.7914 191.615 89.2867 191.629 C 89.7821 191.643 90.2091 191.827 90.5677 192.179 C 90.8975 192.531 91.0702 192.941 91.0858 193.409 C 91.1014 193.878 90.9287 194.288 90.5677 194.639 L 84.0908 200.966 C 83.9109 201.141 83.716 201.266 83.5061 201.34 C 83.2962 201.414 83.0713 201.45 82.8315 201.449 Z M 72.0367 209.225 C 71.0472 209.225 70.2004 208.881 69.4964 208.193 C 68.7923 207.506 68.4397 206.678 68.4385 205.71 L 68.4385 202.196 C 68.4385 201.698 68.6112 201.281 68.9566 200.945 C 69.3021 200.608 69.729 200.44 70.2376 200.439 C 70.7462 200.437 71.1737 200.606 71.5204 200.945 C 71.867 201.283 72.0391 201.7 72.0367 202.196 L 72.0367 205.71 L 93.6262 205.71 L 93.6262 202.196 C 93.6262 201.698 93.7989 201.281 94.1444 200.945 C 94.4898 200.608 94.9168 200.44 95.4253 200.439 C 95.9339 200.437 96.3615 200.606 96.7081 200.945 C 97.0547 201.283 97.2268 201.7 97.2244 202.196 L 97.2244 205.71 C 97.2244 206.677 96.8724 207.505 96.1684 208.193 C 95.4643 208.882 94.6169 209.226 93.6262 209.225 L 72.0367 209.225 Z" stroke-linecap="round" />
</g>
<g transform="matrix(1 0 0 1 587.33 565)"  >
<rect style="stroke: none; stroke-width: 1; stroke-dasharray: none; stroke-linecap: butt; stroke-dashoffset: 0; stroke-linejoin: miter; stroke-miterlimit: 4; fill: rgb(44,44,44); fill-rule: nonzero; opacity: 1;" vector-effect="non-scaling-stroke"  x="-202.5" y="-10" rx="10" ry="10" width="405" height="20" />
</g>
<g transform="matrix(1 0 0 1 320.83 649.83)"  >
<circle style="stroke: none; stroke-width: 1; stroke-dasharray: none; stroke-linecap: butt; stroke-dashoffset: 0; stroke-linejoin: miter; stroke-miterlimit: 4; fill: rgb(59,130,246); fill-rule: nonzero; opacity: 1;" vector-effect="non-scaling-stroke"  cx="0" cy="0" r="39.8318" />
</g>
<g transform="matrix(1 0 0 1 320.83 650.17)"  >
<path style="stroke: none; stroke-width: 1; stroke-dasharray: none; stroke-linecap: butt; stroke-dashoffset: 0; stroke-linejoin: miter; stroke-miterlimit: 4; fill: rgb(255,255,255); fill-rule: nonzero; opacity: 1;" vector-effect="non-scaling-stroke"  transform=" translate(-82.83, -309.17)" d="M 82.8315 315.449 C 82.5916 315.449 82.3667 315.413 82.1568 315.34 C 81.9469 315.267 81.752 315.143 81.5721 314.966 L 75.0952 308.639 C 74.7354 308.288 74.5627 307.878 74.5771 307.409 C 74.5915 306.941 74.7642 306.531 75.0952 306.179 C 75.4551 305.828 75.8826 305.645 76.378 305.631 C 76.8734 305.617 77.3004 305.785 77.659 306.135 L 81.0323 309.43 L 81.0323 296.866 C 81.0323 296.368 81.2051 295.951 81.5505 295.615 C 81.8959 295.278 82.3229 295.11 82.8315 295.108 C 83.34 295.107 83.7676 295.276 84.1142 295.615 C 84.4609 295.953 84.633 296.37 84.6306 296.866 L 84.6306 309.43 L 88.0039 306.135 C 88.3638 305.784 88.7914 305.615 89.2867 305.629 C 89.7821 305.643 90.2091 305.827 90.5677 306.179 C 90.8975 306.531 91.0702 306.941 91.0858 307.409 C 91.1014 307.878 90.9287 308.288 90.5677 308.639 L 84.0908 314.966 C 83.9109 315.141 83.716 315.266 83.5061 315.34 C 83.2962 315.414 83.0713 315.45 82.8315 315.449 Z M 72.0367 323.225 C 71.0472 323.225 70.2004 322.881 69.4964 322.193 C 68.7923 321.506 68.4397 320.678 68.4385 319.71 L 68.4385 316.196 C 68.4385 315.698 68.6112 315.281 68.9566 314.945 C 69.3021 314.608 69.729 314.44 70.2376 314.439 C 70.7462 314.437 71.1737 314.606 71.5204 314.945 C 71.867 315.283 72.0391 315.7 72.0367 316.196 L 72.0367 319.71 L 93.6262 319.71 L 93.6262 316.196 C 93.6262 315.698 93.7989 315.281 94.1444 314.945 C 94.4898 314.608 94.9168 314.44 95.4253 314.439 C 95.9339 314.437 96.3615 314.606 96.7081 314.945 C 97.0547 315.283 97.2268 315.7 97.2244 316.196 L 97.2244 319.71 C 97.2244 320.677 96.8724 321.505 96.1684 322.193 C 95.4643 322.882 94.6169 323.226 93.6262 323.225 L 72.0367 323.225 Z" stroke-linecap="round" />
</g>
<g transform="matrix(1 0 0 1 587.33 679)"  >
<rect style="stroke: none; stroke-width: 1; stroke-dasharray: none; stroke-linecap: butt; stroke-dashoffset: 0; stroke-linejoin: miter; stroke-miterlimit: 4; fill: rgb(44,44,44); fill-rule: nonzero; opacity: 1;" vector-effect="non-scaling-stroke"  x="-202.5" y="-10" rx="10" ry="10" width="405" height="20" />
</g>
</svg>